# xmcd CD database file
#
# Track frame offsets:
#	150
#	26116
#	71915
#	109245
#	143163
#	176472
#	211254
#	223970
#	257599
#
# Disc length: 3747 seconds
#
# Revision: 0
# Processed by: cddbd v1.5.2PL0 Copyright (c) Steve Scherf et al.
# Submitted via: CDex 1.70beta2
#
DISCID=8d0ea109
DTITLE=Wilbur Ware - Super Bass
DYEAR=1968
DGENRE=Jazz
TTITLE0=Mod House
TTITLE1=Symphony For JR
TTITLE2=Wilbur's Red Cross
TTITLE3=A Real Nice Lady
TTITLE4=For Frazier, Felicia, Veneida and Bernard
TTITLE5=By Myself
TTITLE6=Mod House Alt.
TTITLE7=For Frazier, Felicia, Veneida and Bernard Alt.
TTITLE8=Wilbur Reflects
EXTD=YEAR: 1968
EXTT0=
EXTT1=
EXTT2=
EXTT3=
EXTT4=
EXTT5=
EXTT6=
EXTT7=
EXTT8=
PLAYORDER=
